<svg xmlns="http://www.w3.org/2000/svg" xmlns:xlink="http://www.w3.org/1999/xlink" x="0px"
	 y="0px" viewBox="0 0 191.2 61.9" style="enable-background:new 0 0 191.2 61.9;" xml:space="preserve">
	<path d="M150,0.6c0.4,0,1.4,0,4-0.2c0.8-0.1,1.6-0.1,2.4,0c0,0.1,0.2,0.1,0.3,0l1.4,0.1c0.8,0.1,1.7,0.1,1.9,0.1
		c0.2,0,1,0,1.7,0.1l0.9,0.1c0.3,0,0.4,0.1,0.4,0.1c-0.9,0.2-1.9,0.3-2.9,0.2l-0.8-0.2c-0.4-0.1-0.8-0.2-1.2-0.2l-4,0.2
		c-1.6,0.1-3,0.2-3,0.2c-0.6,0.1-1.1,0.1-1.7,0C148.8,0.9,149.2,0.5,150,0.6 M143.9,0.5c1,0.2,2,0.2,3,0c1.1-0.1,0.4-0.2-1.5-0.2
		C144,0.4,143.8,0.4,143.9,0.5 M90.8,1.3c-0.3,0.1-0.3,0.1,0.1,0.2c0.9,0.1,1.9,0.1,2.8,0c0.9-0.1,1.1-0.2,0.3-0.2
		C93,1.1,91.9,1.1,90.8,1.3 M89.1,2c-1.1,0-1.4,0.1-0.8,0.1c0.7,0.1,1.3,0,2-0.1C89.9,2,89.5,2,89.1,2 M26.3,3.6l1.4,0
		c1-0.1,0.6-0.1-0.9-0.1C25.4,3.5,25,3.6,26.3,3.6 M171,1.6c-0.6,0.1-0.6,0.1,0.5,0.1c0.4,0,0.8,0,1.2-0.2
		C172.8,1.3,171.9,1.4,171,1.6 M171.1,1c0.4,0,0.8,0,1.2,0c0.5,0.1,1.3,0,1.1-0.1c-0.4-0.1-0.9-0.1-1.3-0.1c-0.5,0-0.9,0-1.4-0.1
		c-0.6-0.1-1.2-0.1-1.7,0C168.5,0.9,170.1,1.1,171.1,1 M166.2,1.3c0.2,0,0.5,0,0.7-0.1C166.1,1.1,165.8,1.2,166.2,1.3 M164.7,0.6
		c2.5-0.1,2.6-0.2,0.3-0.1c-0.7-0.1-1.4,0-2,0.1C163.5,0.7,164.1,0.7,164.7,0.6 M56.3,2.8c0.3,0,0.4,0,0.2,0.1c-0.3,0.1,0.1,0.1,2,0
		c1.7-0.1,1.4-0.3-0.5-0.2l-0.9,0c-0.1,0-0.3,0-0.4,0c-0.7,0-0.9,0-0.9,0.1C55.9,2.7,56.1,2.8,56.3,2.8 M53.5,3.1
		c0.6,0.1,1.2,0,1.8-0.1c0.2-0.1-0.5-0.1-1.7-0.2C52.3,2.8,52.2,3,53.5,3.1 M65.6,2.8c0.5,0,1.1,0,1.6,0C66,2.7,65.5,2.8,65.6,2.8
		 M1,14.7c0.1-1.6,0.1-3.4,0.2-5.1c0,0.3,0.1,0.9,0.1,1.4c0,0.6,0.1,0.5,0.1-0.3c0.1-0.9,0.1-0.9,0.1-0.1c0,1.4,0,1.2,0.1-0.9
		c0-0.4,0-0.9,0.1-2l1.7,0C4,7.4,4.5,7.3,5,7.3c1.4-0.1,1.5-0.2,1.1-0.4C5.7,6.7,5.3,6.6,4.9,6.5C4.6,6.4,4.3,6.3,4.3,6.2
		C4.4,6,4,5.9,3.1,5.7C1.4,5.4,1.7,5.4,4.9,5.6l3.4,0.2c0.8,0,0.9-0.1,0.6-0.2C8.7,5.5,8.4,5.4,8.1,5.4L7.5,5.3l-1-0.1
		C3.7,5,3.5,4.9,5,4.9l1.4,0l0.9,0L8,5l3.4,0.2c4,0.3,4.4,0.5,3.2,0.8c-0.4,0.1,1.4,0.1,1.9,0c0.2,0,1.4-0.2,2.7-0.2
		c1.3-0.2,2.7-0.2,4,0.1c0.4,0.1,0.8,0.1,1.2,0c0.8-0.1,1.7-0.1,2.5,0.1c-0.1,0.1,0,0.1,0.8,0.1c0.9,0,1.6-0.2,1.3-0.3
		c-0.1,0,0-0.1,0.2-0.1c0.2-0.1,0.1-0.1-0.3-0.2c-0.7-0.1,1.9-0.2,2.8-0.1c0.6,0,1.2,0,1.8-0.1c-0.9,0-1.7-0.1-2.5-0.2
		C31.5,5.1,32,5,32.4,5.1c0.7,0,1.6,0,2.3,0c0.8,0,1.1,0.1,1,0.2c-0.2,0.1,0,0.1,0.7,0.1c0.3,0,0.6,0,0.9-0.1c1.3-0.2,2.7-0.3,4-0.1
		c1.6,0.1,2,0.1,5.7,0c1.4-0.1,2.9-0.1,4.3,0c0.4,0.1,0.9,0.1,1.3,0c0.6,0,2.4,0,4.1,0l3.2,0l1.8,0c1.6,0.1,3.2,0.1,4.7-0.2
		C66.4,5,66.9,4.9,68.2,5c0.9,0,2.5,0,5.8-0.3l0.3,0c0,0.1,0.1,0.2,0.1,0.2c0-0.1,0-0.1,0-0.2c1.1-0.1,2.1-0.1,3.2-0.1
		c0.3,0,1.4,0,2.5,0l4.2,0c4,0,7.5-0.1,8-0.2c0.4-0.1,0.3-0.1-0.1-0.1c-0.2,0-0.5-0.1-0.6-0.2c-0.2-0.4-0.8-0.5-2-0.5
		c-0.9,0-1.1,0-0.9-0.1c0.1-0.1,0-0.1-0.3-0.1c-0.9,0-0.7-0.2,0.2-0.2l1.8,0c0.3,0,0.6,0,0.9,0c0.8,0.1,1.6,0.1,2.4-0.1
		c3.1-0.4,6.1-0.5,9.2-0.4c0.3,0,0.5,0.1,0.7,0.1c0.1,0.4,0.2,0.4,0.4,0c0.2,0,0.4,0,0.7,0c0.6,0,1.5-0.1,2.1-0.1
		c1.2,0.1,2.4,0,3.6-0.3c0.2-0.1,0.3-0.1,0.8-0.1c0.3,0,1,0.1,1.6,0.1c0.4,0,0.9,0,1.3,0.1c1.4,0.1,2.8,0.1,4.2,0
		c0.7-0.1,1.4-0.1,2.2,0.1c0.7,0.1,1.4,0.1,2.2,0c0.4-0.1,1.2-0.1,3.1-0.1c1,0.1,2,0,3-0.2c0.5-0.1,0.9-0.2,1.4-0.1
		c0.6,0,1.3,0,1.9-0.1c0.5-0.1,1.5-0.2,2.3-0.2c1.4-0.1,1.4-0.1,0.7,0.2C134.3,1.9,133.6,2,133,2c0.2,0.1,0.1,0.1-0.5,0.2
		c-0.3,0-0.6,0.1-0.9,0.2c0.8,0.1,1.7,0,2.5-0.1c0.3,0,1.3-0.1,2.3-0.1c0.8-0.1,1.7-0.1,2.5,0.1c0.6,0.1,1.1,0.2,1.7,0.1
		c0.5,0,1,0,1.5,0.1c0.1,0,0.2,0,0.3,0c-0.2,0.1-0.3,0.3-0.4,0.5c0,0.3,0.3,0.3,0.5-0.1c0.1-0.3,0.1-0.4,0-0.4
		c0.5,0,1.3,0.1,2.4,0.1c2.8,0,2.8,0,2.3,0.3c-0.2,0.1-0.1,0.2-0.1,0.2c1.3-0.1,2.5-0.3,3.8-0.5c0.5-0.2,1.9-0.1,1.8,0.1
		c-0.1,0.1,0.3,0.1,1.8,0.1l3.3,0c0.4,0,0.8,0,1.2,0.1c-0.8,0.2-1.7,0.2-2.5,0.1c-1.6,0-2.6,0.1-1.7,0.1c1.1,0.1,0.8,0.2-0.5,0.2
		c-1.4,0-1.8,0.1-1.3,0.2c0.8,0.2,1.6,0.2,2.4,0c1.4-0.2,2.8-0.3,4.2-0.2c0.3,0.1,0.6,0.1,1,0.1c0.3,0,0.7,0,1,0.1
		c0,0.1-0.2,0.1-1.1,0.1c-1.3,0-2.5,0.1-3.8,0.3c0.2,0,0.5,0,0.7,0l1.6,0c1.3,0,2.7-0.1,3.6-0.2c0.7-0.1,2-0.1,2.9-0.1
		c1.7,0,2.6-0.1,2.5-0.3c0.9-0.2,1.9-0.2,2.8-0.1c-0.6,0.1-0.6,0.1,0,0.1c0.4,0,0.7-0.1,1.1-0.2c0.8-0.2,1.7-0.2,1.5,0
		c-0.2,0.1-0.2,0.1,2.2,0.1l3.4-0.1c0.6,0,2.2,0,3.6,0c4,0.1,5,0,5.5-0.2c0.6-0.1,1.2-0.2,1.8-0.2c0,1.2-0.1,2.6-0.2,3.6
		c-0.1,0.8-0.1,0.5-0.1-0.7c0-2-0.1-1.3-0.3,1.5c-0.1,1-0.2,3.2-0.3,4.9c-0.1,0.9-0.1,1.9-0.2,2.8c0,0.8-0.1,1.5-0.1,2.2
		c-0.1,1.7-0.1,2.4-0.2,3.3c-0.2,2-0.3,4.1-0.3,6.2c0,0.5,0,0.9,0,1.4c-0.1,1.1-0.2,1.1-0.2,0c0,0.5-0.1,1.2-0.2,1.7
		c-0.1,0.9-0.2,1.9-0.2,2.9c-0.1,2.2-0.2,2.7-0.2,1c0-0.9,0-1.4,0.1-2.5c0.1-1.2,0.1-1.8,0.1-4.2c0-2.8,0-3.7,0.2-3.9
		c0.1-0.4,0.1-0.7,0.1-1.1c0.1-1,0-2.1-0.1-1.8c0-0.5,0-1.1,0.1-1.6c0,0,0,0,0.1,0c0.4,0.2,0.4,0,0.1-0.7c0,0,0-0.1-0.1-0.1
		c0.1-0.7,0.1-1.5,0.2-3.5c0.1-1.7,0.2-4.1,0.2-5.3c0.1-0.7,0.1-1.4,0-2c0,0.1-0.2-0.2-0.2,0.8c-0.1,2.2-0.1,2.9-0.1,4.2
		c0,2.6-0.2,5.9-0.3,4c0-0.5-0.1-0.6-0.1-0.3c-0.1,0.3-0.1,0-0.1-0.9l-0.2,3.3c0-0.2,0-0.3,0-0.3c0,0.8,0,1.6,0,2.4
		c0,0.3-0.1,1.1-0.1,1.9c0,1,0,2.1-0.2,3.1c-0.1,0.4-0.1,0.7-0.2,1.1L186,40.6c0.4-0.5,0.7-1.4,1.1-1.9c0.1-0.2,0.3-0.3,0.4-0.4
		c0.2-0.1,0.4,0,0.5,0.2c0.1,0.2,0.1,0.5,0.1,0.8c0.1,1.6,0.1,3.2,0.2,4.9c0,0.8,0,1.7-0.1,2.5c-0.1,0.6-0.3,1.2-0.5,1.7
		c0.1,0,0.2,0,0.3,0.1c0.1,0.1,0.2,0.1,0.3,0c0.1-0.1,0.2-0.1,0.3-0.1c0.1,0,0.4-0.2,0.4-0.4c0-0.4,0.9-0.4,1,0
		c0.1,0.1,0.1,0.3,0.2,0.4c0.3,0.3,0.1,0.7-0.4,1c-0.5,0.3-0.5,0.4-0.2,0.5c0.3,0.1,0.3,0.3,0,0.4c0.1,0.1,0.3,0.1,0.6,0
		c0.1-0.1,0.2-0.1,0.3-0.1c0.3,1.1,0.4,2.3,0.3,3.4c-0.2,0.7-0.4,1.5-0.5,2.2c-0.2,1-0.2,1-0.7,1.2c-0.4,0.1-0.7,0.4-0.9,0.8
		c-0.3,0.4-0.8,0.6-1.3,0.6c-0.7,0-1.3,0.2-1.9,0.6c-1.2,0.7-2.6,1-3.9,0.7c-0.7-0.1-1.8-0.1-2.5-0.1s-1.6-0.1-2.1-0.1
		c-0.4-0.1-1.3-0.1-2.3-0.1c-0.1-0.4-0.3-0.6-0.7,0c-2.4,0-5.5,0.1-6.9,0.3c-0.4,0-0.9,0.1-1,0.1c-0.2,0-0.7,0-2.1,0.2
		c-0.4,0-3.8,0.2-4.2,0.2l-19.8-0.1l-10.1-0.2l0,0c0.1,0.2-1.1,0.3-1.9,0.2c-0.3,0-0.9,0-1.4,0c-0.3,0-0.6,0-0.9-0.1
		c-0.5-0.2-1-0.2-1.6-0.1c-0.3,0-0.9,0.1-1.3,0.1c-0.4,0-0.7,0-1.1,0.1c-0.5,0.1-1,0.1-1.6,0c-0.7-0.1-1.4-0.2-2.1-0.1
		c-0.3,0-0.2,0.1,0.4,0.1c0.5,0,0.8,0.1,0.8,0.2c0.8,0,0.6,0.1-1,0.2c-1.2,0.1-1.5,0.2-1.5,0.3c0.1,0.2-0.8,0.2-2.2,0.1
		c-0.5,0-0.5-0.1,0-0.2c0.9-0.2,0.8-0.3-0.7-0.4c-1.7-0.1-5.6-0.1-7.5,0.1c-1.8,0.1-2,0.1-1.4,0c0.6-0.1-0.1-0.2-1.3-0.2
		c-0.5,0-0.9,0.1-0.9,0.2c-0.1,0.1-0.1,0.1-3.7,0.2c-4.2,0.1-4.1,0.1-2.3-0.1c1.5-0.1,1.5-0.2-0.1-0.2c-0.6,0-1.4,0-1.8,0
		c-1.7-0.1-4.3-0.2-5.3-0.1c-0.9,0.1-0.9,0.1,0.5,0.1c0.9,0,1.7,0,1.8,0.1c0.3,0,0.6,0.1,1,0.1c1,0,0.5,0.1-0.6,0.2
		c-0.9,0-1.8,0.2-2.6,0.4c-1,0.2-1.9,0.2-2.9,0.1c-1.3,0-1.9,0-2.4,0c-0.3,0-1.5,0.1-2.7,0.1c-1.2,0-2.3,0.1-2.6,0.1
		c-0.3,0-1.1,0.1-1.7,0.1c-0.7,0-1.4,0-1.6,0.1c-1.5,0.1-3.1,0.2-4.6,0.1c-0.4-0.1-0.9-0.1-1.3-0.1c0-0.1,0-0.2,0-0.3
		c1.3-0.1,1.8-0.2,1.8-0.2c0.3-0.1,0.7-0.2,1.1-0.2c0.8-0.1,1.6-0.2,2.4-0.1c1.3,0.1,2.6,0,3.9-0.3c2.6-0.3,2.6-0.3,0.8-0.3
		l-3.5,0.1c-0.6,0-1.3,0-1.9,0.1c-1,0.1-2,0.2-3,0.2c-0.2,0-0.3-0.1-0.1-0.1c0.5-0.2-0.1-0.3-1.1-0.3c-0.5,0-0.9,0-1.3,0
		c0.8-0.1-0.1-0.2-1.8-0.1c-1,0-1.3,0.1-1.1,0.1c0.2,0.1-0.7,0.1-1.5,0c-0.4-0.1-0.7-0.1-1.1,0c-0.4,0.1-0.4,0.1,0.5,0.2
		c-0.8,0.1-1.6,0.1-2.5,0.1c-0.7,0-1.4,0-2.1,0c-0.3,0.1-4.1,0.1-4.5,0.1c-0.2,0-0.1-0.1,0.2-0.1c0.4-0.1,0.4-0.1-0.1-0.2
		c-0.3-0.1-0.5-0.1-0.3-0.2c0.4-0.2-1.7-0.5-3.1-0.5c-0.5,0-1,0-1.5,0c-0.7-0.1-1.3-0.1-2,0c-1.2,0-1.5,0-1,0c0.6-0.1,0.6-0.1,0-0.2
		c-0.3,0-0.4-0.1-0.4-0.1c-0.1,0-0.3,0-0.3,0c0,0,0-0.1,0.3-0.1c0.3-0.1,0.8-0.1,1.4-0.2c-1.1-0.2-2.1-0.3-3.2-0.2
		c-1.9,0.1-1.8,0.1,0.4-0.2c1.7-0.2,1.8-0.2,0.8-0.2c-0.1,0-0.2,0-0.3,0l-0.1,0.1c-0.3,0.1-0.6,0.1-0.9,0.1c-0.2,0-0.3,0-0.5,0
		c-0.1,0-0.2,0-0.4,0c-0.9,0.2-1.8,0.2-2.8,0.2c0.6-0.2,1.2-0.3,1.9-0.3c0.5,0,0.7-0.1,0.5-0.1c-0.5,0-0.9,0-1.4,0.1
		c-0.6,0.1-1.5,0.1-2,0.1c-0.6,0-1.2,0.1-1.8,0.2c-1.5-0.2-1.1-0.5,0.7-0.5c0.2,0,0.4,0,0.5-0.1c0.1-0.1,0.3-0.2,0.4-0.2
		c0.2-0.1,0-0.1-0.5-0.2c-0.5,0-0.7-0.1-0.5-0.2c0.2-0.1,0-0.1-0.7-0.1c-0.6,0-0.9,0-0.9-0.1c0-0.1-0.2-0.1-0.9,0
		c-1.2,0.2-2.4,0.2-3.5,0.1c-1-0.2-1.9-0.2-2.9,0c-0.3,0.2,0.1,0.2,1.7,0.3c-0.3,0-0.4,0.1-0.2,0.1c-0.9,0.1-1.8,0.1-2.7,0.1
		c-1.5,0-2.1-0.2-1.4-0.4c0.5-0.1,0.5-0.1-0.4-0.2c-2.2-0.1-3-0.2-2.8-0.3c0.1,0-0.2-0.1-0.7-0.1s-1.2,0-1.7,0c-1.3,0-2.7,0-4,0.1
		c-1,0.1-2,0.1-3,0c-0.4-0.1-0.9-0.2-1.3-0.2c-1-0.1-2.4-0.6-2-0.7c0.3-0.1-1-0.4-1.8-0.5c-0.2,0-0.5,0-0.7-0.1
		c0-0.1,0.2-0.1,1.8-0.1c0.4,0,0.7-0.1,0.6-0.1c0.9-0.3,1.9-0.4,2.8-0.3c0.4,0,0.8,0,1.2,0c0.2,0,1-0.1,1.8-0.1c1.3,0,1.4,0,1.4-0.2
		L9,54.7c0-0.1-0.1-0.1-0.2,0l-7.4,0.1c0,0.1-0.1,0.1-0.1,0l-0.7,0c0-0.1,0.1-0.1,0.1-0.2c0.1-0.2,0.1-0.4,0-0.6
		c-0.4-1-0.7,0.3-0.6,0.8l-0.1,0l0.2-4.1c-0.1,0-0.1-0.1,0-0.1l0.5-10.6l-0.1-0.2c-0.1-0.7-0.2-1.4-0.2-2.2c0-1.1,0-2.2,0.2-3.3
		c0-1.1,0.2-2.3,0.5-3.3l0.4-6.8c-0.1,1-0.1-0.6,0.1-2.1c0-0.3,0.1-0.5,0.1-0.7l0.4-6.8c0,0.3,0,0.2,0-0.3c0-0.6,0-0.8-0.1-0.4
		c-0.1,0.3-0.1,0.2-0.1-0.2c0-0.1,0-0.2,0-0.2c0.1,0,0.2,0,0.2-0.2C2.2,13,2.2,12.8,2,12.4c-0.7-1.4-0.6,0.7-0.2,0.9
		c0,0.2-0.1,0.7-0.2,1.6c-0.1,0.6-0.1,1.2-0.2,1.6c0,0.2-0.1,0.4-0.1,0.7c-0.1,0.6-0.2,1.2-0.2,1.8c-0.2,2.1-0.4,1.3-0.2-0.9
		c0-0.4,0.1-0.8,0.1-1.4C1,16.2,1,15.5,1,14.7 M189.9,51.6c0.1-0.4-0.3-0.9-0.5-0.5C189,51.7,189.5,53,189.9,51.6 M186.8,6.3
		c-0.2-0.4-0.6-0.5-0.7-0.3C185.1,8.2,187.3,7.2,186.8,6.3 M182.6,54l0.6-1.2C183.3,51.9,182,53.9,182.6,54 M182.6,41.5
		c-0.4,1.1,0.6,0,0.6-0.2C183,41,182.7,41.1,182.6,41.5 M183.6,21.1c0-0.2,0-0.4-0.1-0.6C183.4,21,183.5,21.1,183.6,21.1
		 M181.3,26.6c0.2,0,0-0.7,0-0.8C181.3,25.9,181.1,26.6,181.3,26.6 M178.9,15.8c0.1-0.1,0.3,0,0.3,0.1c0,0,0,0,0,0.1
		c0.1,0.4,0.2,0.4,0.4,0c0-0.3,0-0.6-0.1-0.9C178.8,13.4,178.3,16,178.9,15.8 M174.4,7.7c0.2,0.2,0.8-0.4,0.7-0.6
		C174.7,6.4,173.8,7.2,174.4,7.7 M166.1,53.6c0,0.1,0.1,0.2,0.3,0.2C166.3,53.3,166.1,53.3,166.1,53.6 M167.8,8.7
		c0.4,0,0.5,0,0.5-0.3C168.4,7,166.2,8.5,167.8,8.7 M165.9,20.7c0.1,0.2,0.8-0.3,0.7-0.5C166.4,19.3,165.7,20.5,165.9,20.7 M162,6
		c0.2,0,0-0.7,0-0.8C162,5.3,161.8,6,162,6 M160.5,16.1c-0.1,1.3,1.6,2.2,0.8,0.4C161.2,16.1,160.6,15.8,160.5,16.1 M157.3,51.9
		c0.3,0.3,1.5-1.1,0.2-0.7C157.1,51.3,157,51.6,157.3,51.9 M154.8,17.6c0.1,0,0.3-0.2,0.3-0.3C155.2,16.9,155,17,154.8,17.6
		 M149.9,55.9c-0.7-0.7-0.8,0.9-0.3,0.5c0.1-0.1,0.2,0,0.3,0.2C150.1,56.4,150.1,56.1,149.9,55.9C149.9,55.9,149.9,55.9,149.9,55.9
		 M152.4,7.4c0-0.7-0.1-0.8-0.4-0.1C151.4,8.4,152.3,8.6,152.4,7.4 M149.7,49.9c0.1-0.2,0.1-0.4,0-0.6l-0.6,0
		C149,49.9,149.1,50.9,149.7,49.9 M148.4,10.7c0.2,0,0-0.7,0-0.8C148.3,10,148.2,10.7,148.4,10.7 M143,57.7c0.8,0.4,0.8-1.1,0-0.8
		C142.6,57,142.6,57.5,143,57.7 M142.2,15.6c0.1,0.3,1.2,0.5,1.8,0.3c0.1,0.3,0.7,0.4,0.7,0.1C144.8,14.8,141.7,14.4,142.2,15.6
		 M138,52.6c-0.1-0.2-0.2-0.1-0.3,0.1C137.2,53.4,138.3,53.2,138,52.6 M138.6,18.8c-0.1-0.2-0.2-0.1-0.3,0.1
		C137.9,19.6,138.9,19.4,138.6,18.8 M136.9,8.7c0,0.3,0.3,0.3,0.5-0.1C137.6,7.8,136.9,8.5,136.9,8.7 M134,56.6
		c-0.1-0.3-0.4-0.2-0.6,0.2C133,57.8,134.1,56.8,134,56.6 M131.4,18.9c0-0.1-0.1-0.2-0.3-0.2C130.4,18.6,131.4,19.5,131.4,18.9
		 M127.9,59.4c0,0.1,0.1,0.2,0.3,0.2C128.1,59.2,128,59.2,127.9,59.4 M125.8,52.9c0.1-0.7-0.3-0.8-0.2-0.4
		C125.5,52.7,125.6,52.8,125.8,52.9 M127.6,11c0.1,0.2,1.2-0.2,1.2-0.5c0-0.4-0.4-0.9-0.7-0.8C128.5,8.8,127,9.8,127.6,11 M120,50.6
		c0.1,0.3,1.2,0.5,1.8,0.3c0.1,0.3,0.7,0.4,0.7,0.1C122.6,49.9,119.5,49.5,120,50.6 M121,10.2c0,0.7,1.4-1.6,1.1-0.4
		c-0.1,0.5,0.2,0.6,0.5-0.2c-0.3,0,0.2-1-0.9-1.2c-0.1,0.4-0.2,0.8-0.4,1.2C121.2,9.9,121.1,10,121,10.2 M119.5,59.5
		c1.5,0.2,1.4-0.9,1.7-0.3c0.6,1.1-0.2-2.2-0.2-1.8c0,0.5-0.3,0.8-0.8,0.6c-0.1,0.7-1.7-0.5-2.1,0.5
		C116.9,61.8,117.8,59.3,119.5,59.5 M114.5,52c0,0.3,0.3,0.6,0.4,0.3C114.9,51.6,114.5,51.6,114.5,52 M115.7,13.8
		c0.5,0.2,0.2-1.3-0.2-0.8c-0.2,0.2-0.1,0.5,0,0.7C115.6,13.8,115.7,13.8,115.7,13.8 M114.4,4.7c-0.2-0.4-0.6-0.5-0.7-0.3
		C112.7,6.6,114.9,5.6,114.4,4.7 M110.2,14.4c0,0.2,0.1,0.4,0.2,0.5C110.3,14.3,110.3,14.1,110.2,14.4 M104.9,54
		c-0.3-0.7-1,0.2-0.4,0.8c0.6,0.5,0.2,2,1,0.9C106.6,54.3,105.2,54.7,104.9,54 M106.6,5.8c1.5,0.2,1.4-0.9,1.7-0.3
		c0.6,1.1-0.2-2.2-0.2-1.8c0,0.5-0.3,0.8-0.8,0.6c-0.1,0.7-1.7-0.5-2.1,0.5C104,8,104.9,5.6,106.6,5.8 M101.5,16
		c-0.2-0.4-0.6-0.5-0.7-0.3C99.8,18,102,16.9,101.5,16 M99,51.6c0.9-0.2-0.3-0.6-0.5-0.2C98.4,51.7,98.5,51.8,99,51.6 M95.8,17.1
		c0.1-0.1,0.3,0,0.3,0.1c0,0,0,0,0,0.1c0.1,0.4,0.2,0.4,0.4,0c0-0.3,0-0.6-0.1-0.9C95.8,14.7,95.2,17.2,95.8,17.1 M94.9,4.5
		c0,0.3,0.3,0.3,0.5-0.1C95.6,3.5,94.9,4.3,94.9,4.5 M91.8,58.2c0.3,0.3,1.5-1.1,0.2-0.7C91.5,57.6,91.5,57.8,91.8,58.2 M90.6,8.2
		c0-0.3-0.2-0.5-0.3-0.3C90.2,8.1,90.2,8.4,90.6,8.2 M86.8,53.4c0,0.7,1.4-1.6,1.1-0.4c-0.1,0.5,0.2,0.6,0.5-0.2
		c-0.3,0,0.2-1-0.9-1.2c-0.1,0.4-0.2,0.8-0.4,1.2C86.9,53,86.8,53.2,86.8,53.4 M85.3,18c0,0.1,0,0.1,0,0.2l0.1,0
		C85.3,18.1,85.3,18,85.3,18 M78.6,56.5c0,0.2,0.1,0.4,0.2,0.5C78.6,56.3,78.6,56.2,78.6,56.5 M80.7,7.3c0.2,0.8,0.5,0.6,0.3,0
		C80.7,6.6,80.5,6.6,80.7,7.3 M76.9,48.3c0.1,0.3,0.1,0.6,0.1,0.9c0,0.9,1.5,0.6,1.4,0.4c-0.4-0.3-0.8-0.8-1-1.3L76.9,48.3z
		 M76.7,15.2c0.1,0.4,0.4,0.3,0.5-0.2C77.4,14,76.6,14.4,76.7,15.2 M76.7,54.6c-0.3-0.3-0.4,0.6-0.6,0c-0.8,0.6-1.4-0.9-1.8,0.4
		C73.8,57,77.8,55.8,76.7,54.6 M70.3,51.4c-0.1,1.3,1.3,0.7,0.8,0.1C70.9,51.2,70.4,51.1,70.3,51.4 M66.8,6.1c0.1,0.5,0.2,1,0.2,1.5
		c0,0.9,1.5,0.6,1.4,0.4C67.5,7.5,67.2,5.2,66.8,6.1 M66.9,16.9c-0.3-0.6-0.8-0.1-0.6,0.4l1.3,0.1C67.3,17.3,67.1,17.1,66.9,16.9
		 M65.2,58.5c-0.3-0.3-0.4,0.6-0.6,0c-0.8,0.6-1.4-0.9-1.8,0.4C62.2,61,66.2,59.7,65.2,58.5 M62,49.4c0,0.2,0.1,0.4,0.2,0.5
		C62,49.2,62,49.1,62,49.4 M61.2,10.4c-0.2-0.4-0.6-0.5-0.7-0.3C59.5,12.3,61.7,11.3,61.2,10.4 M57.5,51.4c0.4,0,0.5,0,0.5-0.4
		C58.1,49.7,55.9,51.2,57.5,51.4 M54.6,7.6c-0.1,0.6,0,1.2,0.1,1.8C54.9,9.3,54.9,7.6,54.6,7.6 M50.2,54.9c1.1,1.3-0.3-0.8,1-0.8
		c1,0.1,1.7,2.8,1.8,1.3c0-0.2-0.1-0.4-0.2-0.4c-0.5,0-0.8-1.8-1.4-1.3C51.3,53.7,49,53.3,50.2,54.9 M46.1,16.4
		c-0.1-0.5-0.2-1.2-0.5-0.4c0,0.1-0.1,0.2-0.1,0.4L46.1,16.4z M46.5,50.5c-0.4,0.1-0.5,0.4-0.2,0.7C46.6,51.5,47.8,50.1,46.5,50.5
		 M45.7,7.3C45.9,7,45.9,7,46,7.3c0.3,1.2,1-1,1.2,0.1c0,0.3,1.8,0.9,1.2-0.6c-0.1,0.1-0.2,0-0.4-0.5c-0.3-0.8-0.7-1-0.6-0.3
		C47.5,6.8,47,7,46.2,6.8C45,6.4,45.3,8,45.7,7.3 M41.6,55.2c0,0.3,0.3,0.3,0.5-0.1C42.3,54.3,41.6,55,41.6,55.2 M38.5,11.5
		c0-0.1-0.1-0.2-0.3-0.2C37.4,11.3,38.5,12.1,38.5,11.5 M35.9,51.9c0.9,0.5,0-0.9,0.3-1.2c0.2-0.1,0.2-0.7,0.1-0.7
		C36.2,49.9,35.1,51.4,35.9,51.9 M34.6,5.7c0.1,0.4,0.3,0.5,0.4,0.1C35,5.7,34.9,5.5,34.6,5.7 M31.3,48.3c-0.1,1.3,1.6,2.2,0.8,0.4
		C32,48.3,31.4,48,31.3,48.3 M27,52.6c0,0.8,1.1,1.2,0.6,0.1C27.3,52.1,27,52,27,52.6 M27.5,8.8c0,0.7,0.8,0,0.6-0.7
		c-0.1-0.3-0.4-2-0.8-0.7C26.9,8.4,27.5,8,27.5,8.8 M22.5,10.7c0,0.2,0.1,0.3,0.2,0.3C22.8,10.4,22.5,10.3,22.5,10.7 M18.6,52.4
		c0.1-0.1,0.2,0,0.3,0.2c0.2-0.2,0.2-0.4,0-0.6c0,0,0,0,0,0C18.2,51.3,18.1,52.9,18.6,52.4 M13.4,50.5c0.4,0.2,0.4,0,0.1-0.7
		C12.9,48.7,12.6,50.1,13.4,50.5 M9.8,34.6c-0.1-0.6-0.2-0.8-0.2-0.5C9.6,34.3,9.7,34.5,9.8,34.6 M14,9.8c0.9-0.2-0.3-0.6-0.5-0.2
		C13.4,9.8,13.5,9.9,14,9.8 M11.6,25.6c0.1,0.5,0.6,0.1,0.6-0.1C12.3,25.2,11.8,25.3,11.6,25.6 M11.4,16.8c-0.3-0.3-0.4,0.6-0.6,0
		C10,17.4,9.4,15.9,9,17.2C8.5,19.3,12.5,18.1,11.4,16.8 M6.6,43.4c-0.1-0.3-0.4-0.2-0.6,0.2C5.6,44.7,6.7,43.6,6.6,43.4 M8.9,8.1
		C9,7.9,9,7.7,8.8,7.4C7.9,5.6,8.3,9.1,8.9,8.1 M6.8,30.8c0.4,0,0.5,0,0.5-0.4C7.5,29.1,5.2,30.6,6.8,30.8 M4.3,26.7
		c0.1,0.3,1.2,0.5,1.8,0.3c0.1,0.3,0.7,0.4,0.7,0.1C6.9,26,3.8,25.6,4.3,26.7 M1,34.7c0.1,0,0.2-0.1,0.2-0.3
		C1.3,33.6,0.5,34.7,1,34.7 M81.6,2.2c0.4,0.1,0.8,0,1.2-0.1C82.4,2.1,82,2.1,81.6,2.2 M64.7,2.4c0.1,0,0.8-0.1,1.4-0.1
		c0.6,0,1.2,0,1.4,0c0.9,0.1,1.9,0,2.8-0.1C71.6,2,70.8,1.9,69.4,2c-0.3,0.2-0.8,0.3-0.9,0.2c0,0,0-0.1,0-0.1c-0.2,0-0.4,0-0.6,0.1
		c-0.5,0.1-1.1,0.1-1.6,0c-1.4,0-2.9,0.1-4.3,0.3C62.9,2.5,63.8,2.5,64.7,2.4 M76.7,2.7c-0.5-0.1-1.1-0.1-1.6,0
		C75.6,2.8,76.1,2.8,76.7,2.7 M83.5,2.8l1.5,0c1.1,0,2.3-0.1,2.6-0.2c0.4-0.1,0.9-0.1,1.3-0.1c0.6-0.2-0.1-0.2-0.5-0.1
		c-0.9,0-1.5,0-1.9,0.1c-0.5,0-1.1,0.1-1.6,0c-0.7,0-1.4,0-2.1,0.2C83,2.9,83.2,2.9,83.5,2.8 M191.2,36.2c0,0.6,0.1-0.2,0.1-2.3
		C191.3,34.7,191.2,35.5,191.2,36.2 M192.7,31.9c0.1-1.6,0.2-2.7,0.2-3.3c0-0.6,0-1.6,0.1-2.2C192.8,26.6,192.7,30.7,192.7,31.9
		 M190.4,43.2c-0.1,0.5-0.1,1-0.1,1.4C190.4,45,190.5,43.1,190.4,43.2 M190.9,36c-0.1,0.6-0.1,0.6-0.1,2.1c0,1.4,0,1.4,0.2-0.1
		C191.2,35.9,191.1,34.1,190.9,36 M53.5,60.4c-0.1,0-0.3,0-0.4,0l-1,0c-0.8,0-1.6,0.1-2,0.1c-0.9,0.1-0.8,0.2,0.1,0.2
		c0.4,0,1.2-0.1,2-0.1l0.9-0.1C53.3,60.5,53.4,60.5,53.5,60.4 M59.6,60.9c-1.7-0.1-3.6,0-2.7,0.2c1,0.1,2,0.1,3,0
		C60.4,60.9,60.3,60.9,59.6,60.9 M68.6,61.3l-0.2,0c-2.3,0.1-3.1,0.2-2,0.3c0.4,0,1,0,1.3,0c0.3,0,0.6,0,1,0
		C68.7,61.4,68.7,61.4,68.6,61.3 M191.9,38.5c0,0.2-0.1,0.3-0.1,0.5c0,0.1,0,0.3,0,0.5c0,0.1,0,0.3-0.1,0.4c-0.1,1.1,0,1.1,0.1,0.4
		C192,39.7,192,39.1,191.9,38.5 M179.1,0.2l2.4,0c0.7,0-0.3-0.1-1.9-0.1c-0.7,0-1.3,0-2,0C176.7,0.2,177.1,0.2,179.1,0.2 M172,0.1
		C171.4,0,170.8,0,170.2,0c-1.3,0-1.3,0,0.2,0.1C172,0.3,172.8,0.2,172,0.1 M181.3,0.6c0.4,0,0.7-0.1,0.7-0.1
		C181.9,0.4,181,0.5,181.3,0.6 M178.7,1c-1.1,0-1.4,0.1-0.8,0.1c0.6,0,1.1,0,1.7,0C180.7,1.1,180.1,1,178.7,1 M191.9,29.6
		L191.9,29.6c0.1-1.3,0.2-2,0.3-3.7c0.1-3.3,0.1-4-0.1-1.7c-0.1,1.2-0.2,2.5-0.2,3.8C191.9,28.4,191.9,29.1,191.9,29.6
		C191.9,29.6,191.9,29.6,191.9,29.6 M192.1,44.4c0-0.8,0-1.4,0-1.6c0-0.2,0-0.3,0-0.3c0,0.2-0.1,0.4-0.1,0.6c0,0.5-0.1,1.2-0.1,2.1
		c-0.4,6.6-0.4,6.6-0.3,7.1c0.1,0.3,0.2,0.5,0.3-1.5c0.3-5.6,0.3-5.9,0.2-5.1C192,46.5,192,46.1,192.1,44.4 M191.9,30
		C191.9,30,191.9,30,191.9,30C191.8,30.7,191.8,30.7,191.9,30 M79,2.9C79.7,3,80.4,3,81.2,2.8c0.3-0.2,0-0.2-1.6-0.1
		C78.3,2.8,78.3,2.8,79,2.9"/>
</svg>
