<?xml version="1.0" encoding="utf-8"?>
<!-- License: PD. Made by Mary Akveo: https://maryakveo.com/ -->
<svg fill="#000000" width="800px" height="800px" viewBox="0 0 24 24" id="browser" data-name="Flat Color" xmlns="http://www.w3.org/2000/svg" class="icon flat-color"><circle id="primary" cx="12" cy="12" r="10" style="fill: rgb(0, 0, 0);"></circle><path id="secondary" d="M22,12c0-.34,0-.67-.05-1H17c-.24-5.2-2.3-9-5-9S7.26,5.8,7,11h-5c0,.33,0,.66,0,1s0,.67,0,1H7c.24,5.2,2.3,9,5,9s4.74-3.8,5-9h5C22,12.67,22,12.34,22,12ZM12,4c1.14,0,2.75,2.7,3,7H9C9.25,6.7,10.86,4,12,4Zm0,16c-1.14,0-2.75-2.7-3-7H15C14.75,17.3,13.14,20,12,20Z" style="fill: rgb(44, 169, 188);"></path></svg>