<!--?xml version="1.0" standalone="no"?-->
              <svg id="sw-js-blob-svg" viewBox="0 0 100 100" xmlns="http://www.w3.org/2000/svg" version="1.1">
                    <defs> 
                        <linearGradient id="sw-gradient" x1="0" x2="1" y1="1" y2="0">
                            <stop id="stop1" stop-color="rgba(241, 242, 246, 1)" offset="0%"></stop>
                            <stop id="stop2" stop-color="rgba(241, 242, 246, 1)" offset="100%"></stop>
                        </linearGradient>
                    </defs>
                <path fill="url(#sw-gradient)" d="M22.9,-39.8C29.3,-36,33.9,-29.1,37.1,-22C40.3,-14.8,42,-7.4,41.8,-0.1C41.6,7.2,39.5,14.4,36.1,21.2C32.7,28,28.1,34.4,21.9,37.6C15.7,40.8,7.8,40.7,0.5,39.9C-6.9,39.1,-13.8,37.4,-20,34.2C-26.2,31,-31.7,26.3,-36.3,20.3C-40.8,14.3,-44.3,7.2,-44.4,0C-44.4,-7.2,-41,-14.5,-36.6,-20.7C-32.2,-26.9,-26.9,-32.1,-20.6,-36C-14.4,-39.9,-7.2,-42.4,0.5,-43.3C8.2,-44.2,16.5,-43.5,22.9,-39.8Z" width="100%" height="100%" transform="translate(50 50)" stroke-width="0" style="transition: all 0.3s ease 0s;"></path>
              </svg>