<svg xmlns="http://www.w3.org/2000/svg" width="1920" height="1200" preserveAspectRatio="none"><g fill="none" stroke="rgba(255, 233, 233, 1)" stroke-width="2" mask="url(#a)"><path d="M-1486.03 199c192 106.8 576 529 960 534s576-509 960-509 662.79 494 960 509S1814.79 385.8 1920 299"/><path d="M-1068.857 555c191.997 80.6 575.997 466.8 960 403 383.997-63.8 575.997-694 960-722 383.997-28 746.227 561.8 960 582C2024.91 838.2 1898.23 433.2 1920 337"/><path d="M-257.276 418c191.996 60.6 575.996 296.6 960 303 383.996 6.4 575.996-259.2 960-271 383.996-11.8 908.546 199.2 960 212S2060.54 543.6 1920 514"/><path d="M-1249.757 710c191.997-57.2 575.997-283.2 960-286 383.997-2.8 575.997 287.6 960 272 383.997-15.6 710.047-414 960-350C1880.19 410 1862.05 882 1920 1016"/><path d="M-1154.699 636c191.999-70.2 575.999-351.8 960-351s575.999 329.2 960 355 729.059-252 960-226S1881.06 698.8 1920 770"/><path d="M-283.745 268c192.005 76 576.005 322.4 960 380 384.005 57.6 576.005-118.6 960-92 384.005 26.6 903.255 235.4 960 225S2055.25 559.4 1920 504"/><path d="M-83.354 355c192.004 84 576.004 389.6 960 420 384.004 30.4 576.004-245.8 960-268 384.004-22.2 943.334 165.8 960 157 16.674-8.8-701.316-160.8-876.646-201"/></g><defs><mask id="a"><path fill="#fff" d="M0 0h1920v1200H0z"/></mask></defs></svg>