<svg xmlns="http://www.w3.org/2000/svg" width="1920" height="1200" preserveAspectRatio="none" xmlns:v="https://vecta.io/nano"><g mask="url(#A)" fill="none" stroke="rgba(255, 233, 233, 1)" stroke-width="2"><path d="M-311.715 393c192.005 47.6 576.005 208.6 960 238 384.005 29.4 576.005-167 960-91 384.005 76 897.655 505.2 960 471S2049.66 497.4 1920 369"/><path d="M-1538.882 310c192.002 63.8 576.002 323 960 319s576.002-390.4 960-339 652.222 601.8 960 596C1648.89 880.2 1804.22 386 1920 261"/><path d="M-809.288 752c191.998-89.4 575.998-446 960-447s575.998 430.2 960 442 798.138-386.8 960-383S1950.14 685.6 1920 766"/><path d="M-1118.38 446c192 75 576 353.8 960 375s576-303.2 960-269 736.32 472.6 960 440 126.7-482.4 158.38-603"/><path d="M-447.624 929c192.004-97.4 576.004-498.4 960-487 384.004 11.4 576.004 574.2 960 544 384.004-30.2 870.474-620 960-695S2022.48 547 1920 611"/></g><defs><mask id="A"><path fill="#fff" d="M0 0h1920v1200H0z"/></mask></defs></svg>